<?xml version="1.0" standalone="no"?>
<!DOCTYPE svg PUBLIC "-//W3C//DTD SVG 20010904//EN"
 "http://www.w3.org/TR/2001/REC-SVG-20010904/DTD/svg10.dtd">
<svg version="1.0" xmlns="http://www.w3.org/2000/svg"
 width="492.000000pt" height="492.000000pt" viewBox="0 0 492.000000 492.000000"
 preserveAspectRatio="xMidYMid meet">
<metadata>
Created by potrace 1.11, written by Peter Selinger 2001-2013
</metadata>
<g transform="translate(0.000000,492.000000) scale(0.100000,-0.100000)"
fill="#000000" stroke="none">
<path d="M2296 4699 c-65 -4 -125 -10 -132 -13 -11 -4 -14 -32 -14 -119 l0
-113 -88 -16 c-76 -15 -275 -71 -323 -92 -13 -6 -29 15 -73 93 -66 116 -43
114 -217 26 -130 -65 -303 -173 -362 -225 -5 -4 16 -51 46 -104 l56 -95 -159
-159 -159 -159 -92 53 c-50 30 -94 54 -98 54 -22 0 -174 -238 -245 -383 -75
-154 -79 -134 33 -198 58 -33 95 -61 94 -70 -1 -8 -18 -66 -38 -129 -20 -63
-43 -154 -53 -202 l-16 -88 -117 0 -117 0 -7 -92 c-10 -119 -10 -307 0 -425
l7 -93 117 0 117 0 16 -88 c10 -48 33 -139 53 -202 20 -63 37 -121 38 -129 1
-9 -36 -37 -94 -70 -112 -64 -108 -44 -33 -198 71 -145 223 -383 245 -383 4 0
48 24 98 54 l92 53 159 -159 159 -159 -56 -95 c-30 -53 -51 -100 -46 -104 59
-52 232 -160 362 -225 174 -88 151 -90 217 25 31 55 58 100 60 100 2 0 26 -9
54 -20 62 -24 258 -77 322 -86 l47 -6 3 -117 3 -116 55 -8 c71 -10 429 -10
500 0 l55 8 3 116 3 117 47 6 c64 9 260 62 322 86 28 11 52 20 54 20 2 0 29
-45 60 -100 66 -115 43 -113 217 -25 130 65 303 173 362 225 5 4 -16 51 -46
104 l-56 95 159 159 159 159 92 -53 c50 -30 94 -54 98 -54 22 0 174 238 245
383 75 154 79 134 -33 198 -58 33 -95 61 -94 70 1 8 18 66 38 129 20 63 43
154 53 202 l16 88 117 0 117 0 7 93 c10 118 10 306 0 425 l-7 92 -117 0 -117
0 -16 88 c-10 48 -33 139 -53 202 -20 63 -37 121 -38 129 -1 9 36 37 94 70
112 64 108 44 33 198 -71 145 -223 383 -245 383 -4 0 -48 -24 -98 -54 l-92
-53 -159 159 -159 159 56 95 c30 53 51 100 46 104 -59 52 -232 160 -362 225
-174 88 -151 90 -217 -26 -44 -78 -60 -99 -73 -93 -48 21 -247 77 -323 92
l-87 16 -3 116 -3 115 -55 6 c-107 13 -297 16 -414 8z m434 -569 c833 -141
1430 -842 1430 -1679 0 -384 -131 -755 -373 -1058 l-52 -65 -3 60 -3 61 -47
15 c-69 24 -106 49 -140 98 -53 78 -463 838 -457 848 3 6 12 10 19 10 8 0 51
19 97 42 122 61 221 162 282 289 66 136 88 221 94 370 4 96 1 145 -11 210 -53
262 -229 474 -461 556 l-80 28 -720 -3 -720 -3 33 20 c142 90 381 173 591 206
134 21 385 19 521 -5z m-1462 -508 l-3 -39 55 -12 c78 -19 127 -46 147 -84 17
-30 18 -81 15 -822 -4 -937 -9 -1072 -41 -1137 -25 -52 -67 -78 -124 -78 l-34
0 -8 -101 -7 -101 -45 43 c-97 94 -229 286 -299 434 -273 578 -203 1244 184
1760 41 55 151 175 160 175 2 0 2 -17 0 -38z m1399 -226 c145 -39 216 -149
198 -309 -10 -85 -39 -149 -91 -197 -86 -79 -192 -109 -411 -117 l-163 -6 0
267 c0 216 3 272 15 295 18 36 83 68 161 81 74 11 222 4 291 -14z m19 -1669
c144 -265 271 -512 283 -549 l23 -68 251 -2 252 -3 -95 -63 c-179 -119 -384
-205 -610 -254 -92 -19 -133 -22 -330 -22 -197 0 -238 3 -330 22 -226 49 -431
135 -610 254 l-95 63 480 5 480 5 6 95 c4 52 7 127 8 166 l1 71 -40 6 c-57 7
-112 39 -134 77 -16 26 -21 63 -27 199 -4 91 -8 234 -8 318 l-1 152 58 4 c31
2 84 4 117 5 l60 2 261 -483z"/>
</g>
</svg>
